<svg version="1.1" id="Layer_1" xmlns="http://www.w3.org/2000/svg" xmlns:xlink="http://www.w3.org/1999/xlink" x="0px" y="0px"
	 width="100%" viewBox="0 0 512 448" enable-background="new 0 0 512 448" xml:space="preserve">
<path fill="#000000" opacity="1.000000" stroke="none" 
	d="
M513.000000,180.539368 
	C509.676453,174.951706 508.992584,168.050110 506.751953,161.644318 
	C501.913818,147.812485 496.222443,134.366852 489.356628,121.418831 
	C488.772186,120.316696 487.646271,119.269882 488.748718,117.577194 
	C491.747498,117.861008 492.313629,120.530701 493.434235,122.559387 
	C501.498535,137.158798 507.194153,152.745544 512.753296,168.744919 
	C513.000000,172.692902 513.000000,176.385818 513.000000,180.539368 
z"/>
<path fill="#000000" opacity="1.000000" stroke="none" 
	d="
M358.226379,418.163574 
	C396.287964,402.799042 427.341125,379.029449 451.092255,345.927582 
	C453.609406,342.419403 455.670380,338.581207 457.898071,334.869110 
	C458.934692,333.141754 459.168030,331.439331 457.297302,330.000824 
	C455.592529,330.410889 455.638397,331.970398 455.293060,333.149384 
	C454.319550,336.472778 453.292816,339.638550 448.935516,339.592621 
	C444.472992,339.545624 442.703674,336.591095 441.355957,332.908600 
	C440.169922,329.667755 438.847321,326.293274 434.262146,326.634064 
	C435.123413,333.393951 434.171722,335.673981 427.460327,336.991180 
	C414.407013,339.552979 403.440155,345.255310 394.945312,355.568024 
	C393.007233,357.920898 389.928040,358.018677 387.378235,359.161163 
	C382.902222,361.166809 382.692627,362.217682 385.539062,366.040588 
	C389.148407,370.888184 392.299561,376.003204 392.390991,382.336151 
	C392.489166,389.137970 388.407898,391.942505 381.953522,389.864136 
	C376.970123,388.259399 372.800385,385.093170 368.072235,383.077393 
	C363.722046,381.222748 359.103729,380.552551 355.134644,377.223236 
	C345.336182,369.004333 345.843597,362.027069 357.883942,356.408905 
	C351.428467,352.113983 345.234924,347.993317 339.027100,343.863159 
	C337.135620,345.957092 337.015747,348.312073 337.435913,350.277924 
	C339.346436,359.216614 336.410553,368.062164 337.185547,376.965729 
	C337.327881,378.600769 336.687836,380.194580 338.483063,381.365936 
	C341.379944,383.256104 340.835175,386.170197 339.732941,388.542206 
	C335.243591,398.202698 330.505829,407.746918 326.540741,417.646057 
	C326.160645,418.595001 325.519348,419.382751 324.284790,419.214691 
	C324.011078,419.037018 323.485229,418.808960 323.508453,418.679382 
	C324.541473,412.919708 321.998169,411.226288 316.407837,411.179047 
	C312.009888,411.141876 308.048615,405.421570 308.866364,399.867096 
	C310.076050,391.650024 308.540039,383.755402 307.706207,375.739655 
	C307.156525,370.455750 309.277405,368.082092 314.494934,368.675537 
	C319.455719,369.239716 323.643707,371.475586 326.499176,375.820801 
	C328.023346,378.140137 328.720917,381.009064 331.226410,383.057098 
	C333.326599,381.305298 334.302094,378.946655 334.423309,376.562286 
	C334.702118,371.079742 334.671967,365.571808 334.521942,360.080872 
	C334.435394,356.914276 332.947418,354.348755 330.004608,352.809753 
	C327.057068,351.268341 323.994293,349.902039 321.789520,347.246826 
	C320.945129,346.229919 319.748291,346.187103 318.564270,346.410065 
	C313.835632,347.300415 309.792725,345.024841 305.624451,343.517975 
	C302.340179,342.330658 301.891754,340.034882 303.923492,337.213562 
	C305.215576,335.419342 306.897949,334.102875 308.751526,332.938721 
	C312.702454,330.457184 312.732391,329.385498 308.873352,326.599121 
	C306.475739,324.867950 303.757019,323.440491 303.484528,319.974579 
	C305.527405,317.901764 308.741241,320.515747 310.746521,317.283905 
	C308.800598,312.442169 306.152618,307.344543 306.365967,301.252533 
	C306.545227,296.133698 308.041656,292.391113 312.763916,290.512238 
	C318.739594,288.134674 323.509125,284.888672 325.773346,278.387360 
	C326.941315,275.033813 330.212494,273.477966 333.842285,273.575470 
	C335.619751,273.623260 337.354248,273.831818 337.874237,271.716156 
	C339.406860,265.480286 344.472443,265.485779 349.308929,265.121307 
	C356.841248,264.553680 357.042664,264.574188 356.576172,257.413544 
	C355.947174,247.758011 362.954712,245.180710 372.728851,246.601196 
	C376.808228,247.194061 380.910461,247.840897 384.881104,248.912384 
	C389.092041,250.048706 391.396881,248.355316 392.552429,244.568848 
	C401.054413,247.761383 407.136475,245.474564 412.443695,238.096680 
	C416.417786,232.572098 423.124237,231.832932 429.045929,231.383636 
	C442.185181,230.386703 455.340668,230.913055 467.950378,235.667801 
	C471.732483,237.093933 475.003998,239.385712 478.502930,241.299744 
	C484.299377,244.470566 486.825592,243.308716 487.215088,236.856186 
	C488.151581,221.341873 486.621124,205.936554 483.526215,190.758331 
	C478.135498,164.320847 467.587006,140.027725 452.030487,117.943214 
	C421.355988,74.396736 379.262299,48.324764 327.531311,37.673622 
	C284.966583,28.909758 243.935089,35.116409 205.006073,53.817020 
	C178.278427,66.656364 155.226883,84.619972 136.806747,108.146690 
	C135.991562,109.187881 135.047638,110.139931 134.078888,111.042534 
	C133.765244,111.334785 133.180267,111.335838 132.480072,111.539818 
	C131.155594,108.353317 133.935074,106.952538 135.274963,105.281433 
	C148.933853,88.246353 165.227905,74.072945 183.202713,61.782822 
	C189.784134,57.282833 195.796021,51.762665 203.417236,49.037838 
	C210.068680,46.659725 217.248581,45.737511 223.476700,42.168385 
	C238.224670,33.716808 254.695526,32.045933 271.048492,30.287230 
	C295.909576,27.613501 320.795166,26.554976 345.398224,32.699257 
	C350.923615,34.079151 355.921661,36.829773 361.144501,39.001614 
	C375.409515,44.933502 390.294830,49.494774 403.293488,58.195400 
	C405.262939,59.513657 408.027588,60.108181 408.381531,63.392864 
	C405.646271,64.852783 403.907227,61.752132 400.975677,62.019257 
	C411.059448,68.329865 419.963043,75.436104 428.289032,83.267708 
	C428.898529,83.841003 429.551422,84.166817 430.477966,84.214912 
	C436.224915,84.513184 440.584137,89.174286 440.806183,95.094765 
	C440.863037,96.610680 442.238342,97.241882 443.094147,98.198280 
	C463.715790,121.242828 477.096100,148.125427 485.451782,177.716019 
	C491.334869,198.550323 494.046814,219.742126 493.120544,241.381927 
	C491.973267,268.186096 485.380798,293.649994 474.237549,317.993652 
	C472.370209,322.073059 470.420013,326.125641 470.965424,330.853394 
	C471.121124,332.203247 470.613953,334.008453 469.479523,334.370697 
	C461.838409,336.810516 460.089417,344.390747 456.143982,349.826080 
	C434.707581,379.357300 407.484314,401.646027 374.386566,416.869141 
	C354.255859,426.128082 333.218475,432.252777 311.157898,434.366028 
	C298.638672,435.565247 286.089325,437.120667 273.341797,436.159637 
	C279.471375,437.663940 286.813385,434.951996 292.138245,441.848328 
	C281.869965,443.557892 273.003296,442.047302 264.606934,437.510803 
	C264.919067,436.092377 265.742828,435.930695 266.587555,435.876923 
	C267.376709,435.826660 268.171539,435.866119 269.002258,435.568604 
	C255.396027,432.349640 241.330200,430.962799 228.553848,424.216461 
	C272.336395,435.135681 315.489929,434.786865 358.226379,418.163574 
M369.398529,255.650330 
	C368.144806,255.650330 366.891083,255.650330 365.188812,255.650330 
	C367.165833,256.957489 368.832092,258.026886 370.464813,259.145233 
	C374.259766,261.744476 375.696228,265.508850 375.538879,269.934662 
	C375.380127,274.401306 372.058044,277.092194 367.248169,277.410461 
	C362.360535,277.733917 360.633667,275.337097 360.618134,270.889069 
	C360.614258,269.775940 360.691101,268.533630 359.516754,267.635925 
	C358.111359,269.269104 356.792572,271.257599 354.510132,271.453918 
	C349.251343,271.906281 347.947266,275.604828 347.030334,279.845612 
	C346.227905,283.556915 344.553558,287.108765 344.615967,290.968567 
	C344.663422,293.904572 345.099243,296.828674 343.180084,299.795685 
	C336.776642,295.859039 331.071747,291.524200 326.657623,285.364502 
	C323.492279,288.233459 320.431580,290.102386 317.004120,291.513306 
	C310.970856,293.997040 309.347473,297.010742 309.593597,303.600006 
	C309.723175,307.069275 311.156891,309.985443 312.811127,312.914124 
	C320.437927,326.416840 333.194977,334.624146 344.799377,344.017517 
	C347.956085,346.572723 351.069214,349.987946 355.225555,345.255035 
	C355.758972,344.647644 357.096954,344.722931 358.071808,344.530792 
	C367.202667,342.731506 376.478790,343.530029 385.679993,342.985077 
	C387.286835,342.889893 389.194336,343.628174 390.530426,341.745087 
	C388.878082,340.677979 387.331909,341.186646 385.877319,341.022400 
	C379.225677,340.271210 377.071381,336.083618 379.768616,330.013580 
	C381.715088,325.633057 383.983307,321.727753 388.245453,319.259888 
	C389.651001,318.446014 390.141083,317.010345 390.524689,315.529266 
	C391.484009,311.825348 392.567383,308.149719 393.400085,304.417938 
	C394.130798,301.143250 395.181763,298.136078 398.991150,297.656799 
	C403.195068,297.127930 405.435425,300.023346 406.964905,303.280426 
	C409.391968,308.449005 410.619385,313.921509 410.458130,319.713989 
	C410.311554,324.978485 413.456329,327.421295 418.625092,327.002441 
	C422.335999,326.701691 425.683380,325.108490 429.319397,324.670624 
	C434.189026,324.084198 435.062958,322.216034 431.744843,318.396667 
	C429.577606,315.901978 428.591675,312.911530 427.235474,310.125183 
	C424.990570,305.512787 426.893280,302.746002 431.963837,302.360809 
	C436.765564,301.996124 441.208862,302.929230 445.166412,305.847809 
	C447.242310,307.378723 449.437775,308.747498 451.777435,310.322937 
	C454.248291,306.014191 454.731903,301.652039 455.403442,297.478180 
	C455.720581,295.507050 458.151550,293.396698 456.755096,291.992584 
	C452.748505,287.963959 451.426849,282.532532 448.463928,278.094330 
	C446.698700,275.450256 446.370453,273.692017 447.972168,271.564087 
	C450.210266,268.590668 450.747223,265.298492 450.997040,261.744995 
	C451.205597,258.779083 451.322327,255.695114 452.760925,252.983093 
	C453.929993,250.779129 455.134674,248.291153 458.453064,249.807968 
	C459.308594,250.199020 460.125092,250.072098 460.795197,249.520416 
	C464.649597,246.347244 469.384216,244.710327 474.151215,242.206757 
	C473.095245,241.452972 472.494293,240.908142 471.798645,240.544449 
	C457.654572,233.149872 442.565063,232.485535 427.072083,233.982758 
	C419.596375,234.705215 415.327759,239.865784 412.545715,245.393112 
	C408.648468,253.136108 404.765656,254.258179 396.312561,252.912491 
	C388.659424,251.694183 380.998810,250.522781 373.263367,249.318527 
	C372.450012,251.838913 373.063293,254.683777 369.398529,255.650330 
M467.595917,290.945984 
	C470.367065,293.535645 470.356110,298.042145 473.633728,300.231171 
	C475.572723,299.487885 475.773987,297.857971 476.256683,296.509369 
	C481.145874,282.849396 484.988403,268.950836 485.860535,254.366211 
	C486.147461,249.567581 481.808258,244.758896 477.000732,244.774673 
	C468.335205,244.803101 457.150818,255.324936 456.404510,264.308075 
	C460.926453,263.118744 465.365692,261.802155 469.879059,260.829529 
	C472.003326,260.371765 475.217255,260.544312 474.025543,263.691071 
	C472.525208,267.652649 471.677216,272.372589 468.281342,275.154633 
	C463.967529,278.688721 462.646851,284.376831 457.926666,287.791351 
	C462.001526,286.094452 464.559845,288.196838 467.595917,290.945984 
M362.922089,369.399567 
	C363.501892,368.405823 364.087616,367.415497 364.660400,366.417725 
	C367.626526,361.250916 366.751617,359.695770 360.882263,359.542603 
	C359.379272,359.503448 357.944183,359.543060 356.530670,360.146240 
	C352.617615,361.816040 350.713959,366.596924 352.641083,370.492126 
	C354.988098,375.235962 357.948242,372.538971 360.754028,370.974243 
	C361.327026,370.654694 361.854614,370.253662 362.922089,369.399567 
M398.885193,316.407654 
	C400.702362,313.878784 402.573425,311.386414 404.319000,308.809052 
	C405.632263,306.870117 403.662720,301.999634 401.101624,300.984406 
	C398.048004,299.774078 397.321533,302.396545 396.684326,304.259430 
	C395.569611,307.518463 394.869659,310.922882 394.066040,314.283142 
	C393.733887,315.672028 392.926727,317.320831 394.656158,318.292114 
	C396.241333,319.182373 397.450348,318.087433 398.885193,316.407654 
M368.334808,261.251068 
	C366.621063,260.470398 365.347046,258.508423 362.540436,259.385468 
	C362.880005,263.531311 363.125305,267.746613 363.616089,271.933197 
	C363.820251,273.674774 365.044067,274.961945 366.855652,275.252686 
	C368.482422,275.513794 369.660034,274.517242 370.646576,273.338562 
	C373.775238,269.600433 373.291809,266.350311 368.334808,261.251068 
M333.308960,276.825195 
	C330.636871,277.252655 328.650604,279.041260 329.340576,281.483551 
	C330.585266,285.889496 333.481018,289.306854 338.069458,291.019165 
	C336.729706,286.246399 338.008240,280.843384 333.308960,276.825195 
M422.014191,332.769501 
	C419.303101,334.008514 416.197693,334.550232 413.096100,337.796936 
	C419.527588,337.148315 424.608154,336.246216 429.251404,333.656677 
	C430.652618,332.875153 432.436920,331.672150 431.056885,329.810303 
	C429.928131,328.287476 427.845642,327.862152 426.135681,328.920715 
	C424.777954,329.761169 423.772827,331.171234 422.014191,332.769501 
M313.783203,343.525696 
	C315.469299,343.856384 317.414703,344.052002 318.045929,342.171021 
	C318.718048,340.168121 317.684998,338.388824 315.910217,337.108612 
	C314.422943,336.035706 313.488403,333.626770 311.009460,335.141296 
	C309.323486,336.171356 307.228363,337.271179 307.426910,339.461761 
	C307.714386,342.633453 310.902344,342.413940 313.783203,343.525696 
M345.273560,275.137726 
	C345.488098,273.840363 346.061035,272.472748 345.824188,271.263824 
	C345.543884,269.833191 344.382294,268.973877 342.833313,270.141571 
	C340.890198,271.606415 340.380341,279.496765 342.469940,282.442719 
	C343.412628,280.005249 344.224884,277.905090 345.273560,275.137726 
M387.108093,346.011139 
	C385.794037,345.970154 384.469177,345.805786 383.168732,345.919922 
	C381.600891,346.057556 379.989532,346.518982 380.606049,348.640198 
	C381.140900,350.480499 382.113098,352.146942 384.513794,351.433838 
	C387.017792,350.690094 388.628387,349.284393 387.108093,346.011139 
M387.849426,328.902161 
	C390.216949,327.421448 391.911224,325.343323 393.432831,323.090454 
	C391.185028,320.431824 389.412811,321.791351 387.807861,323.327301 
	C386.152557,324.911407 384.848358,326.681274 387.849426,328.902161 
M324.207428,383.908539 
	C324.853912,384.415802 325.951508,385.249817 326.324799,384.561157 
	C327.801483,381.836639 325.711639,379.898834 324.295837,377.960297 
	C323.511749,376.886688 322.033295,375.859039 320.957764,377.313599 
	C319.288208,379.571472 321.658936,380.827454 322.754852,382.342346 
	C323.046143,382.744934 323.395996,383.105194 324.207428,383.908539 
M394.285431,345.453674 
	C392.788483,346.675537 391.485382,347.977936 392.057892,350.310242 
	C395.064392,349.709320 397.580383,348.883270 399.115326,346.294281 
	C397.878113,344.635010 396.343109,345.263794 394.285431,345.453674 
M462.138306,300.012207 
	C461.417023,299.799530 460.334869,299.172668 460.218140,300.374603 
	C460.021271,302.401154 460.665710,304.341827 462.687042,305.250366 
	C463.609283,305.664917 464.751312,305.022705 465.171295,304.139587 
	C466.338531,301.685181 464.136017,301.167206 462.138306,300.012207 
M467.033905,307.907257 
	C466.164429,309.427979 465.641388,311.003937 467.476746,312.133362 
	C468.457123,312.736664 469.332825,311.980011 469.954895,311.189331 
	C471.010468,309.847656 470.704620,308.334137 470.015106,307.050629 
	C469.020172,305.198547 468.233398,306.896454 467.033905,307.907257 
M385.555115,387.106689 
	C389.380981,386.529297 389.938141,384.758972 387.682556,380.138702 
	C385.541290,381.837769 386.902679,384.624115 385.555115,387.106689 
M400.693909,248.643600 
	C399.739227,249.498230 399.563385,250.492081 400.987122,250.736389 
	C403.402710,251.150879 405.741974,250.945190 407.168671,247.614929 
	C404.820038,247.932663 403.063416,248.170303 400.693909,248.643600 
M440.349304,309.632324 
	C441.839233,310.780121 443.351990,311.650726 445.407623,309.850983 
	C444.231384,308.140167 442.832764,306.770599 440.757233,306.827423 
	C439.584259,306.859558 439.459015,308.087708 440.349304,309.632324 
M380.316223,370.369904 
	C380.617645,371.413116 380.518005,372.725494 382.396942,373.039825 
	C382.596680,371.287964 384.739441,369.533173 382.382538,367.953369 
	C380.993652,367.022369 380.514099,368.538177 380.316223,370.369904 
M315.286102,398.320831 
	C316.979889,397.171204 317.763794,395.782227 316.196228,393.208710 
	C314.336761,394.729279 311.897949,395.490448 315.286102,398.320831 
M329.167755,345.924652 
	C328.041077,345.833496 326.923859,345.768524 326.181183,347.019318 
	C327.283508,348.876556 329.048218,349.419739 331.060455,349.709869 
	C331.344086,348.142090 330.411591,347.215149 329.167755,345.924652 
z"/>
<path fill="#000000" opacity="1.000000" stroke="none" 
	d="
M155.685577,97.659149 
	C156.966293,92.599358 160.896744,93.878159 163.976990,93.732513 
	C166.056961,93.634163 168.174179,94.323441 170.569397,94.707680 
	C171.347397,98.012199 170.207199,101.036629 168.598740,104.088264 
	C171.021469,106.057983 173.159348,106.026833 172.981094,102.783394 
	C172.406097,92.321198 184.868851,86.029236 193.129761,91.867073 
	C192.308929,84.660416 192.004288,77.824890 198.089127,72.994446 
	C200.860489,74.279800 199.687225,76.878326 201.038666,78.771553 
	C203.645996,77.436020 204.125336,73.449631 207.594025,73.311981 
	C209.744110,74.364838 208.947052,76.446495 209.209351,78.143494 
	C209.508072,80.076050 209.219284,82.861923 211.702789,82.923439 
	C213.957642,82.979286 216.530228,84.256638 218.749802,81.139931 
	C222.890610,75.325401 227.452240,74.365326 234.242599,76.942078 
	C236.464859,77.785370 237.673935,76.434402 239.240067,75.649879 
	C241.577316,74.479088 243.773499,72.841629 246.536331,73.264236 
	C248.114349,75.056595 246.467896,76.508316 246.324738,78.061859 
	C246.192978,79.491722 245.327759,80.900696 246.373840,83.142487 
	C252.536942,79.395615 258.546753,73.977005 267.011169,79.726608 
	C262.581360,81.934326 258.844940,83.796455 255.038025,85.693741 
	C256.655243,88.670715 259.898529,89.870117 260.910461,94.102943 
	C253.494553,94.678406 247.090561,97.817703 240.835526,101.975204 
	C242.956894,107.669411 242.877502,113.544838 238.602783,118.044884 
	C236.030441,120.752792 227.789673,117.705078 222.855484,112.934021 
	C220.294342,116.010719 217.030029,118.321754 217.114578,123.171066 
	C217.182922,127.089417 210.901093,133.222839 206.775925,133.303406 
	C203.435318,133.368668 202.615631,134.887436 201.946075,137.643799 
	C201.182877,140.785675 200.534271,144.094589 197.855957,147.184433 
	C196.505722,144.926895 195.368515,143.025528 194.111130,140.923248 
	C191.527985,141.601501 189.224030,143.231140 186.632874,142.378555 
	C185.353592,144.832901 186.743912,146.678177 186.802261,148.596512 
	C186.852036,150.232208 187.559830,152.103485 186.125931,153.336502 
	C184.430038,154.794830 183.091492,152.995773 181.660294,152.352493 
	C180.781616,151.957520 179.917480,151.530212 178.063675,150.651306 
	C181.083160,156.690430 183.035294,162.010468 178.613525,167.642395 
	C173.036728,162.814056 174.069794,157.152863 175.750732,150.950256 
	C172.893539,151.383728 169.906342,150.135345 169.280914,154.301636 
	C169.064331,155.744415 167.555099,156.196747 166.364014,156.808792 
	C165.490479,157.257614 163.898621,158.128693 163.970886,158.330597 
	C165.593872,162.865570 160.394409,165.129730 160.430267,169.578598 
	C160.453506,172.464935 156.970169,175.460785 159.521484,178.773895 
	C157.963318,181.050446 156.205048,178.675079 154.757751,179.496857 
	C154.336456,182.274017 154.178574,185.141724 151.221985,186.953308 
	C148.537323,184.072479 150.059769,180.532104 149.272003,177.327148 
	C147.108673,176.195084 145.459045,179.224289 143.271011,178.236588 
	C142.104813,173.646271 142.361176,173.212128 150.157272,166.717575 
	C148.038208,165.412292 145.320923,168.582245 143.279297,165.472778 
	C144.329224,162.285324 147.100647,160.243500 149.774460,157.901260 
	C147.442215,157.596252 145.105972,158.167557 143.694061,155.856659 
	C144.572159,152.555908 149.297241,151.719223 149.443375,149.557465 
	C149.662354,146.317795 151.988281,144.740662 153.005951,141.964111 
	C149.413742,140.620026 145.109238,139.670609 145.993042,134.547104 
	C146.836823,129.655701 150.944473,129.385818 154.975876,129.024277 
	C155.974091,127.545578 153.767670,125.376205 156.010544,123.982628 
	C157.904388,123.753067 158.509003,126.529579 160.558121,126.282219 
	C164.673035,121.241882 161.879410,113.365753 167.981201,109.086945 
	C165.437500,107.572235 164.488251,110.208809 162.321030,110.400002 
	C160.546021,107.804321 157.228607,107.417862 154.308624,106.555832 
	C154.132309,104.321686 156.125046,105.258522 156.955185,104.023102 
	C156.311401,102.272545 154.101974,100.485825 155.685577,97.659149 
M213.137695,101.910820 
	C212.226089,101.940353 211.272659,101.614029 211.196289,100.730827 
	C210.772141,95.825745 207.106583,94.910027 203.563187,93.893730 
	C199.892776,98.286400 193.691650,101.038071 196.143402,108.408333 
	C199.499252,108.487144 202.705231,107.237518 205.913528,106.413246 
	C206.511765,108.414268 204.352921,108.550140 204.190643,109.892242 
	C206.259613,110.005638 207.583344,107.625565 209.719833,108.329895 
	C210.791412,109.919823 208.335175,110.434494 208.837799,112.115479 
	C211.926117,111.630745 214.744019,118.290672 218.873749,111.966316 
	C214.153687,112.677696 215.724930,110.712326 216.488235,108.637733 
	C217.550705,105.750099 218.679962,102.505295 213.137695,101.910820 
M190.831772,138.335236 
	C193.535675,134.694214 194.454681,130.807556 193.069321,126.797256 
	C190.793579,125.742340 191.365021,128.470993 189.779877,128.047180 
	C187.784821,127.399284 187.313431,124.924728 185.650894,123.732536 
	C179.327072,127.612495 177.428955,131.482574 178.822113,137.490753 
	C179.865982,137.977570 181.070709,135.656586 181.790955,137.319305 
	C183.941330,142.283707 187.103378,140.384689 190.831772,138.335236 
M204.747070,116.957787 
	C206.566742,118.686676 210.150131,118.725922 210.317444,122.794212 
	C207.656815,121.575920 205.488220,120.439735 203.212173,119.592140 
	C201.747025,119.046524 200.163437,119.398064 199.049408,120.561699 
	C197.679382,121.992729 198.828033,123.377228 199.484024,124.653999 
	C201.182388,127.959511 204.504868,129.413040 207.665375,129.384262 
	C211.109528,129.352890 212.900558,125.842552 213.968979,122.986542 
	C215.089615,119.990868 213.107529,117.401405 210.452820,116.090240 
	C208.696777,115.222931 206.259018,112.201080 204.747070,116.957787 
M183.823593,109.455528 
	C184.809799,105.805099 190.317627,106.377136 190.263260,102.205696 
	C191.979080,101.944092 191.506958,103.792671 192.688934,103.887840 
	C192.688934,102.193016 192.857635,100.522614 192.657181,98.897758 
	C192.064575,94.094009 189.505508,92.959450 185.706131,95.855911 
	C183.016098,97.906662 181.612854,100.851570 180.957962,103.941101 
	C179.210632,104.878799 178.583023,101.684525 176.591064,103.441765 
	C176.798248,107.484108 179.528198,109.030792 183.823593,109.455528 
M230.189316,104.917435 
	C228.871017,108.474869 233.077713,110.383766 233.154297,113.704102 
	C229.608887,113.994774 228.321869,110.838387 225.632339,109.438622 
	C227.073380,113.354660 229.803040,115.032310 233.125198,115.980560 
	C235.146729,116.557556 236.809464,115.919846 237.740555,114.078224 
	C239.461349,110.674606 237.997955,107.318901 237.016846,104.120712 
	C236.569061,102.661095 234.672821,101.187553 233.047531,102.353325 
	C232.070114,103.054420 229.435532,101.584862 230.189316,104.917435 
M179.352386,119.109497 
	C178.766235,118.625916 178.410477,117.809563 179.012161,117.408920 
	C181.232529,115.930428 180.946213,113.538849 179.823959,112.276535 
	C178.157928,110.402580 175.846542,111.493835 173.969421,112.812004 
	C172.503433,113.841461 172.061523,115.525764 171.442383,117.029747 
	C170.655853,118.940384 169.660034,120.585167 167.338821,121.348145 
	C172.850250,124.635178 176.900284,123.886078 179.352386,119.109497 
M228.612427,78.354584 
	C227.855667,79.201988 227.368240,80.270538 226.090042,80.627647 
	C219.802719,82.384193 219.213913,83.797409 222.437073,90.350700 
	C223.371140,84.545433 231.226273,87.759415 231.557877,82.137634 
	C232.947235,81.798096 232.658234,83.595642 234.022781,82.977875 
	C233.007645,80.635391 232.932129,77.591637 228.612427,78.354584 
M243.385452,97.280449 
	C245.663498,95.976242 246.471878,94.425812 243.577164,93.084618 
	C241.392349,92.072342 241.960251,90.384499 242.313263,88.712151 
	C238.704987,87.977180 236.199326,88.697281 234.727005,91.653458 
	C236.021698,94.089233 239.334274,93.225822 240.365875,96.163849 
	C237.665451,96.308350 234.997940,94.442551 233.025726,97.401268 
	C236.260284,99.783379 239.475159,99.143089 243.385452,97.280449 
M209.905807,88.739220 
	C208.382080,88.454750 207.770462,88.927895 208.210480,90.561470 
	C209.156784,94.074707 212.142288,93.798187 214.694931,94.462006 
	C216.944305,87.376175 216.830399,87.083656 211.420898,85.590034 
	C210.120651,86.284164 211.594162,87.869820 209.905807,88.739220 
M198.330444,84.145760 
	C199.738815,83.384102 200.092697,85.851891 202.319962,85.147797 
	C199.893295,83.674355 199.733521,80.916290 196.967331,80.020584 
	C194.484985,84.547028 195.004044,88.464256 198.024750,92.216141 
	C200.413269,91.520035 200.349091,90.175545 199.603317,88.628685 
	C198.974365,87.324112 197.641724,86.308189 198.330444,84.145760 
M159.246140,151.648865 
	C159.441925,152.392654 159.349136,153.312286 160.381409,153.545212 
	C162.111237,152.700897 160.931702,150.116592 162.557770,149.220154 
	C164.217667,150.347870 163.703308,152.707092 165.718933,153.122803 
	C167.276169,149.395386 167.112473,149.113007 161.088409,145.150238 
	C159.385254,146.745499 159.145721,148.812943 159.246140,151.648865 
M154.262619,132.496109 
	C151.800156,131.933914 149.435059,131.631622 149.253494,135.198441 
	C149.188263,136.480179 149.717804,137.492111 151.253433,137.477371 
	C153.190674,137.458801 155.044128,135.022064 154.262619,132.496109 
M165.888016,126.920525 
	C168.146103,129.233261 168.146103,129.233261 170.895142,126.730026 
	C168.176575,127.573586 167.696732,125.412689 166.224106,124.789101 
	C165.313477,124.403488 164.611404,124.645493 164.370911,125.660126 
	C164.170273,126.506599 164.626785,126.846474 165.888016,126.920525 
z"/>
<path fill="#000000" opacity="1.000000" stroke="none" 
	d="
M274.080139,257.810791 
	C272.612457,254.341827 272.250763,250.769485 269.107666,247.219803 
	C268.364990,253.049774 268.073212,257.954590 267.063019,262.706665 
	C265.165375,271.633453 261.727264,279.809814 254.639282,286.107300 
	C247.052216,292.848206 238.112030,294.774628 228.549866,293.064392 
	C214.469482,290.545959 208.226501,271.738586 216.817886,258.742401 
	C221.036133,252.361435 226.798950,247.592178 233.030472,243.364090 
	C238.129135,239.904678 243.495300,236.832275 248.518890,233.272232 
	C251.586319,231.098434 255.591995,229.169006 254.523254,224.079193 
	C251.789246,223.546417 250.841492,225.617828 249.504761,226.952591 
	C248.092133,228.363144 246.891251,229.994751 245.422394,231.337891 
	C243.155746,233.410568 240.321899,234.307526 237.621750,232.700867 
	C234.862930,231.059280 235.924225,228.267456 236.795578,225.934311 
	C242.038544,211.895996 247.357010,197.885880 252.649124,183.865921 
	C253.115097,182.631454 253.526337,181.359375 255.070862,180.602188 
	C257.934692,182.054489 258.217468,185.159286 259.150635,187.605515 
	C268.760345,212.796600 278.198242,238.053177 287.726013,263.275635 
	C289.549072,268.101715 291.464294,272.897736 293.502197,277.636597 
	C295.650513,282.632263 298.435028,287.124756 304.011810,289.015411 
	C304.807739,289.285217 305.431824,289.869659 305.535431,291.954132 
	C293.426666,292.027954 281.374115,292.365662 268.529846,291.627411 
	C270.224091,288.720093 272.198029,289.093384 273.839722,288.759430 
	C280.051910,287.495728 282.606750,283.115936 280.870758,276.983917 
	C279.053741,270.565735 276.785522,264.317932 274.080139,257.810791 
M231.322754,284.332336 
	C240.336288,288.780457 248.934341,287.362976 254.924286,279.469635 
	C266.698456,263.953949 268.077972,246.500900 262.774536,228.338806 
	C260.498260,220.543518 257.282288,213.018036 254.377716,205.414093 
	C253.660370,203.536148 253.451431,201.051437 250.035156,200.596909 
	C245.881241,210.048035 242.660965,219.881363 239.317734,230.311310 
	C242.730209,230.011505 244.080002,228.319717 245.484207,226.701523 
	C246.787521,225.199585 247.976013,223.563980 249.451050,222.252686 
	C251.954590,220.027084 255.031906,219.574554 257.697418,221.545914 
	C260.327271,223.490921 259.305420,226.384399 258.195007,228.849365 
	C256.205963,233.264786 252.554901,236.136368 248.657471,238.793137 
	C242.341721,243.098419 235.879227,247.271118 230.829239,253.122314 
	C222.019714,263.329468 222.025101,275.787079 231.322754,284.332336 
z"/>
<path fill="#000000" opacity="1.000000" stroke="none" 
	d="
M74.830704,271.740631 
	C76.792427,263.388245 73.473793,257.443573 67.397476,252.725754 
	C60.176140,247.118927 51.565605,244.359100 43.143307,241.246124 
	C35.659924,238.480194 28.107155,235.912216 21.116669,231.946274 
	C10.900329,226.150177 5.057219,217.915207 6.881405,205.776886 
	C8.640406,194.072342 16.462017,187.361450 27.097574,183.925247 
	C42.689178,178.887772 58.292427,180.914993 73.769768,184.963806 
	C75.320030,185.369354 76.671333,186.202805 76.836952,187.869064 
	C77.274353,192.269836 77.494553,196.687927 76.572563,201.003433 
	C73.611847,201.434738 73.234734,199.293091 72.320030,197.853928 
	C61.736992,181.203018 33.795753,179.115005 20.890997,194.020355 
	C12.738435,203.436798 14.166191,213.890915 24.392611,220.925934 
	C33.356342,227.092300 44.009315,229.021713 53.834156,233.022919 
	C60.285458,235.650223 66.911598,237.859604 72.580574,242.201035 
	C86.718773,253.028381 87.308578,272.157928 73.433586,283.410431 
	C59.256836,294.907623 43.141090,295.881989 26.291574,290.931122 
	C22.658689,289.863678 19.227301,287.980469 15.851737,286.192444 
	C6.731827,281.361572 4.684795,276.743713 7.041793,266.785828 
	C7.177761,266.211395 7.751740,265.740631 8.048006,265.325195 
	C10.173856,265.193024 10.709474,266.763916 11.524424,267.966614 
	C20.112543,280.641266 31.799755,288.696350 47.130142,290.231201 
	C56.257282,291.144989 70.650711,285.343658 74.830704,271.740631 
z"/>
<path fill="#000000" opacity="1.000000" stroke="none" 
	d="
M164.603226,275.408264 
	C157.118225,289.061981 145.197784,294.352539 130.742905,293.885620 
	C115.213844,293.383972 103.877876,285.912598 97.974792,271.143280 
	C91.391556,254.672211 92.962837,238.861969 103.755943,224.866394 
	C113.520210,212.204956 127.704361,210.240219 142.235855,213.389297 
	C157.040863,216.597626 165.268890,227.236725 168.823441,241.586304 
	C171.705154,253.219559 170.047516,264.388519 164.603226,275.408264 
M109.324722,231.975906 
	C104.925468,243.873383 104.662987,255.986603 107.345451,268.279663 
	C109.980103,280.353668 119.214706,289.751831 129.731888,290.953583 
	C140.349945,292.166809 149.981522,286.193024 154.867264,274.355133 
	C160.690353,260.246063 160.832687,245.681183 154.936249,231.628098 
	C150.946884,222.120178 143.967621,215.311722 132.659668,215.148026 
	C121.156281,214.981506 114.330650,221.654907 109.324722,231.975906 
z"/>
<path fill="#000000" opacity="1.000000" stroke="none" 
	d="
M187.661530,223.001587 
	C187.624924,214.854706 187.753754,207.202042 187.504990,199.561676 
	C187.289444,192.941772 185.819992,186.854202 177.946594,185.308517 
	C178.837906,182.709641 180.389389,183.287094 181.822495,183.324402 
	C185.642471,183.423859 189.528961,183.886658 193.270554,183.361282 
	C198.274780,182.658646 199.240479,184.814484 199.206970,189.190842 
	C199.057877,208.665863 199.124451,228.142609 199.129272,247.618729 
	C199.131531,256.774017 199.203171,265.929382 199.181702,275.084534 
	C199.165833,281.843506 200.570206,287.732574 208.210098,290.019745 
	C204.840698,292.558289 182.322968,292.821899 178.058441,290.313751 
	C187.902924,286.675171 187.341522,278.473328 187.361526,270.434570 
	C187.400467,254.789932 187.555862,239.145615 187.661530,223.001587 
z"/>
<path fill="#000000" opacity="1.000000" stroke="none" 
	d="
M312.155640,13.113985 
	C298.254303,11.520835 284.759003,11.688284 271.322083,12.812252 
	C249.986267,14.596944 229.351486,19.604427 209.458008,27.588699 
	C207.633942,28.320786 207.588654,28.207939 204.835052,27.797792 
	C215.164474,14.225574 293.334839,3.947765 329.116516,11.457320 
	C371.362457,20.323536 428.692444,48.125179 431.994720,61.698021 
	C427.660370,61.160091 424.797607,58.248714 421.799896,55.924625 
	C403.990906,42.117462 384.064270,32.184895 363.127563,24.329248 
	C346.883850,18.234446 329.876190,14.948594 312.155640,13.113985 
z"/>
<path fill="#000000" opacity="1.000000" stroke="none" 
	d="
M461.553406,106.434456 
	C451.840271,95.218781 442.384033,84.252457 432.191345,73.942741 
	C430.571198,72.304031 427.478760,70.072357 429.613342,67.792503 
	C431.864075,65.388611 434.100769,68.640724 435.747437,70.093559 
	C449.003357,81.788971 461.748871,93.983948 470.549927,109.594734 
	C471.830658,111.866348 474.127502,114.115868 472.178589,118.212395 
	C467.829468,114.780762 465.453430,110.089081 461.553406,106.434456 
z"/>
<path fill="#000000" opacity="1.000000" stroke="none" 
	d="
M167.145691,363.787476 
	C167.829849,365.265839 168.317291,366.456512 168.954300,368.012573 
	C171.850983,365.617249 174.767761,363.634735 174.595947,359.699280 
	C172.106247,358.201721 171.429031,361.192291 169.692780,360.735962 
	C169.343262,356.681488 174.227585,354.847656 176.964355,358.020721 
	C178.463852,359.759277 178.452896,361.621094 177.179672,363.510437 
	C176.172867,365.004456 175.189697,366.514435 174.258499,367.922821 
	C175.222656,369.846985 177.708450,368.616608 178.968323,371.707703 
	C171.403076,370.183441 164.155533,373.492798 157.088852,369.300140 
	C154.487228,371.053131 151.515549,373.136902 148.345734,370.358429 
	C145.768188,368.099121 146.021973,360.309509 148.402878,357.688446 
	C150.971481,354.860779 156.445282,356.335846 156.666077,360.545380 
	C156.921219,365.409912 159.664337,367.090393 163.353653,368.858521 
	C165.283768,366.462830 165.380219,364.563843 161.742188,364.441559 
	C159.174423,364.355347 157.837494,363.511993 158.159821,360.991302 
	C158.436356,358.828705 159.063660,356.593292 161.963272,356.645325 
	C163.849304,356.679138 165.910538,355.571167 167.658966,357.324402 
	C166.901825,359.845795 162.978760,357.167816 162.798218,360.615265 
	C163.594055,362.211884 166.181534,361.635284 167.145691,363.787476 
M150.563110,360.768372 
	C150.273804,363.399353 149.275574,366.131439 151.625854,368.715881 
	C154.074417,367.327148 155.056030,365.471222 154.273575,362.966278 
	C153.808929,361.478760 153.865921,358.971039 150.563110,360.768372 
z"/>
<path fill="#000000" opacity="1.000000" stroke="none" 
	d="
M151.946060,377.035583 
	C162.895935,388.408936 175.473465,397.245270 187.767258,406.638519 
	C183.143997,407.415070 179.808792,404.543579 176.429062,402.462677 
	C172.209229,399.864471 168.430740,396.549713 164.460297,393.546173 
	C162.525162,392.082275 160.910599,390.385529 157.962631,390.568756 
	C155.815872,390.702240 153.428421,388.591217 153.033188,386.848358 
	C151.243546,378.956482 143.608154,375.644165 139.979095,369.286499 
	C139.348877,368.182404 137.937057,367.496246 138.370865,365.062500 
	C144.301682,367.582123 147.302277,373.040924 151.946060,377.035583 
z"/>
<path fill="#000000" opacity="1.000000" stroke="none" 
	d="
M203.263336,324.798615 
	C205.386673,324.178192 205.586060,322.351562 206.068314,320.839478 
	C207.282852,317.031311 209.681396,316.496643 213.239166,318.000793 
	C212.139374,323.018951 211.255310,328.031372 213.625626,332.956818 
	C211.263351,333.955627 209.208710,333.457428 207.156235,332.911011 
	C206.380219,331.075623 208.838943,329.480560 207.316208,327.654358 
	C205.495392,329.270264 206.264648,333.325867 203.131363,333.186951 
	C199.788498,333.038757 200.817978,328.769714 198.658310,327.151398 
	C197.489151,328.935028 199.011230,330.637604 199.247467,332.371490 
	C197.743958,333.892792 196.125641,333.314880 194.148651,332.967773 
	C195.179169,328.120544 195.582779,323.258392 194.233459,318.249023 
	C197.695343,316.737488 199.965317,317.565948 201.225082,321.155548 
	C201.658279,322.389954 202.390060,323.519623 203.263336,324.798615 
z"/>
<path fill="#000000" opacity="1.000000" stroke="none" 
	d="
M239.701447,370.985535 
	C233.308640,371.155182 227.162491,372.191101 220.792358,371.210999 
	C220.850601,366.204315 227.875092,364.560669 226.258652,359.321960 
	C223.748627,358.528748 223.351685,362.012207 221.170151,361.097321 
	C221.016937,356.922638 225.962021,354.879974 229.114304,357.805725 
	C230.702744,359.280060 230.606171,361.083679 229.928879,362.857788 
	C229.236496,364.671387 227.222809,365.808075 227.124619,368.769318 
	C230.432693,369.093536 231.605728,368.106995 231.377914,364.553162 
	C231.003601,358.713562 234.017822,356.077606 239.205902,357.263214 
	C239.059982,358.931976 236.645874,358.801453 236.605164,360.528137 
	C241.899338,363.398926 242.430634,365.012268 239.701447,370.985535 
z"/>
<path fill="#000000" opacity="1.000000" stroke="none" 
	d="
M256.500214,361.062744 
	C257.272339,362.731354 258.060974,363.870850 259.415375,362.048462 
	C260.199707,360.993164 260.763947,359.777008 261.472473,358.662018 
	C262.278625,357.393433 263.136719,355.903229 264.917267,356.403961 
	C266.655151,356.892700 267.164154,358.632599 266.641571,360.047668 
	C265.286499,363.716888 270.275177,368.223633 264.755585,371.495209 
	C261.950867,368.237427 259.135620,366.991028 255.062790,370.603394 
	C251.634567,373.644073 247.027771,370.949829 246.679672,366.267975 
	C246.581421,364.946564 246.609238,363.611969 246.645035,362.285187 
	C246.715012,359.690643 246.997650,357.093933 250.252792,356.653778 
	C253.380966,356.230774 255.913620,357.038177 256.500214,361.062744 
M251.697220,368.071289 
	C253.892090,365.354950 253.434235,362.665558 251.868286,359.708405 
	C248.812408,363.108215 248.798447,363.314148 251.697220,368.071289 
z"/>
<path fill="#000000" opacity="1.000000" stroke="none" 
	d="
M184.369904,362.514160 
	C185.749435,355.693848 186.374954,355.362213 193.556396,357.346710 
	C192.677383,359.521088 188.828461,357.250366 188.782150,360.798523 
	C190.618546,361.802155 192.584290,362.876465 194.641312,364.000671 
	C196.990921,362.757874 197.573318,360.092529 199.155746,358.232056 
	C200.266342,356.926361 202.063049,355.334991 202.958572,357.805939 
	C204.048569,360.813446 203.278702,364.270966 204.343643,367.498871 
	C204.639679,368.396118 203.462402,370.619995 201.418839,371.537079 
	C198.638062,367.720947 195.551926,367.918182 191.872223,370.751831 
	C190.233047,372.014160 187.655396,371.899628 185.713501,370.576630 
	C184.229187,369.565308 184.337234,368.147888 185.155273,366.905212 
	C187.400223,366.384552 187.215591,369.294403 189.310974,368.948730 
	C190.731339,368.586884 191.025497,367.328278 190.570557,365.928436 
	C190.122070,364.548523 189.197418,363.698090 187.511993,364.231934 
	C186.140625,364.666229 184.824387,364.687531 184.369904,362.514160 
z"/>
<path fill="#000000" opacity="1.000000" stroke="none" 
	d="
M497.649414,147.277435 
	C498.133972,148.862274 498.869965,150.097183 497.953522,151.397995 
	C496.640015,151.895615 496.116119,151.014023 495.685272,150.094315 
	C490.599091,139.236801 484.640289,128.889023 477.921936,118.953178 
	C476.766937,117.245064 474.180542,114.561813 476.742554,112.890091 
	C479.428406,111.137589 480.557495,114.759186 481.652466,116.459587 
	C487.873840,126.121155 493.060883,136.346405 497.649414,147.277435 
z"/>
<path fill="#000000" opacity="1.000000" stroke="none" 
	d="
M226.237595,317.446838 
	C227.926727,317.388000 229.271149,317.173096 230.568588,317.334930 
	C233.650314,317.719238 235.565079,318.933777 232.925934,322.110596 
	C231.712692,323.571014 232.917603,325.446777 231.764816,326.837585 
	C230.633881,328.103027 227.796158,326.768890 227.621201,329.463196 
	C227.587265,329.985687 228.022354,330.855377 228.460373,331.037567 
	C230.473526,331.874725 231.008209,329.168549 232.878464,329.117981 
	C234.197006,329.272278 234.681458,330.328033 234.553879,331.564911 
	C234.404602,333.011993 233.192093,333.270752 231.961441,333.329529 
	C228.678818,333.486328 225.373611,334.018158 221.820282,332.728638 
	C224.404663,327.890808 223.406937,323.114594 221.817001,318.352142 
	C222.868713,316.591095 224.485580,317.548492 226.237595,317.446838 
z"/>
<path fill="#000000" opacity="1.000000" stroke="none" 
	d="
M153.266052,327.445068 
	C152.641525,323.078217 153.451248,319.563873 157.489899,317.944611 
	C160.754410,316.635742 164.242249,316.721375 166.647812,319.725830 
	C169.087051,322.772308 169.772125,326.232452 167.714584,329.952637 
	C165.837692,333.346222 162.770447,333.445160 159.513000,333.347260 
	C155.885483,333.238220 154.214188,331.016571 153.266052,327.445068 
M163.743210,322.038177 
	C161.588242,318.424286 159.624771,319.318909 157.963394,322.394287 
	C156.682983,324.764465 156.733734,327.218536 158.363525,329.458618 
	C159.229218,330.648438 160.514450,331.155334 161.891525,330.504883 
	C164.649933,329.201935 164.840637,326.726837 164.516708,324.112549 
	C164.456741,323.628510 164.204498,323.168274 163.743210,322.038177 
z"/>
<path fill="#000000" opacity="1.000000" stroke="none" 
	d="
M340.781494,437.252899 
	C329.873474,441.259796 319.028748,443.203613 307.702332,442.454498 
	C307.581024,440.288574 308.891235,439.848419 309.872986,439.693359 
	C319.499390,438.172821 328.875366,435.188904 338.667938,434.698517 
	C339.984467,434.632599 342.827545,433.732147 340.781494,437.252899 
z"/>
<path fill="#000000" opacity="1.000000" stroke="none" 
	d="
M182.237808,328.940735 
	C180.284988,326.788269 177.268616,326.465942 175.922684,323.884247 
	C174.877563,321.879547 174.735184,319.935272 176.639511,318.540131 
	C179.135574,316.711395 182.040451,316.789093 184.643051,318.191254 
	C186.506577,319.195221 187.017960,320.917236 185.165207,322.520813 
	C182.953934,323.458954 182.557678,319.053375 179.827942,321.146149 
	C180.573746,323.871918 183.576645,323.946503 185.180618,325.572754 
	C186.882065,327.297791 187.949631,329.135956 186.202362,331.218201 
	C183.705795,334.193420 180.214523,333.995300 177.066696,332.849426 
	C174.787201,332.019684 174.746994,329.913086 176.266434,328.160034 
	C178.868393,325.828644 179.136612,334.788849 182.237808,328.940735 
z"/>
<path fill="#000000" opacity="1.000000" stroke="none" 
	d="
M286.731018,322.445862 
	C284.831482,320.264740 282.876556,319.261261 281.216278,321.823608 
	C279.589966,324.333588 279.399017,327.352936 281.626373,329.636383 
	C284.586761,332.671265 285.585449,328.300507 287.824158,327.555634 
	C289.948853,328.994507 290.721893,330.558807 288.259521,332.452637 
	C285.822845,334.326752 279.717957,333.617828 277.650879,331.303192 
	C274.877106,328.197357 274.754669,322.945129 277.384277,319.869293 
	C279.535370,317.353180 285.262054,316.425995 287.943542,318.169403 
	C289.152893,318.955688 289.850769,320.098267 289.606354,321.521088 
	C289.351135,323.006775 288.330017,323.314697 286.731018,322.445862 
z"/>
<path fill="#000000" opacity="1.000000" stroke="none" 
	d="
M250.023193,331.196655 
	C248.782990,333.608704 248.782990,333.608704 244.074265,332.890289 
	C244.846466,329.239532 245.108566,325.533264 244.548004,321.735870 
	C242.646881,321.550262 239.676514,323.853210 239.535980,320.048004 
	C239.405960,316.526855 242.354919,317.674835 244.328735,317.614471 
	C246.318542,317.553589 248.313004,317.573181 250.303482,317.627899 
	C252.255356,317.681519 254.696640,317.312622 254.627167,320.321228 
	C254.544464,323.901794 251.588577,321.550385 249.784790,322.398132 
	C249.065948,325.125671 248.809052,327.991547 250.023193,331.196655 
z"/>
<path fill="#000000" opacity="1.000000" stroke="none" 
	d="
M133.207245,329.258545 
	C131.913605,320.580322 135.130524,316.415100 142.017776,317.229797 
	C145.515640,317.643524 146.358475,319.385712 144.690491,322.887909 
	C142.342957,322.676025 141.105942,317.132996 137.947662,321.174408 
	C135.648956,324.115936 135.677277,327.568634 138.394302,330.228180 
	C141.863953,333.624420 142.222839,328.050415 145.394119,327.612457 
	C146.494202,330.349518 146.153931,332.471588 142.823654,333.111755 
	C139.143295,333.819305 135.424866,333.798126 133.207245,329.258545 
z"/>
<path fill="#000000" opacity="1.000000" stroke="none" 
	d="
M264.638855,333.419495 
	C262.289032,333.509918 261.112183,333.187042 261.974915,330.619293 
	C263.330627,326.584412 262.924622,322.493378 261.419006,318.429962 
	C263.462158,316.656708 265.597931,316.824524 268.155457,317.936981 
	C267.225037,322.742188 266.351685,327.597229 268.130280,332.374878 
	C267.350830,333.616699 266.099121,333.305969 264.638855,333.419495 
z"/>
<path fill="#000000" opacity="1.000000" stroke="none" 
	d="
M446.139771,75.067711 
	C446.314423,73.783165 447.079956,73.119835 447.847168,73.681259 
	C453.920898,78.125740 458.594574,83.800056 462.285980,90.355576 
	C455.428253,86.896416 450.594971,81.380386 446.139771,75.067711 
z"/>
<path fill="#000000" opacity="1.000000" stroke="none" 
	d="
M157.412231,402.629395 
	C152.161591,398.192810 146.835266,394.295685 144.041870,387.939362 
	C151.177048,391.422821 155.683228,397.875244 161.935059,402.446655 
	C159.827942,404.639526 158.797058,403.403900 157.412231,402.629395 
z"/>
<path fill="#000000" opacity="1.000000" stroke="none" 
	d="
M359.106384,13.981558 
	C351.354645,13.876094 344.309509,10.864122 337.126801,8.310420 
	C344.813965,8.616235 352.418182,9.231703 359.106384,13.981558 
z"/>
<path fill="#000000" opacity="1.000000" stroke="none" 
	d="
M208.921600,362.057861 
	C207.805359,361.031189 206.781372,360.310150 205.598877,359.477570 
	C206.957245,357.000336 209.154190,356.742310 212.132126,356.481934 
	C212.275269,361.580658 212.827652,366.401398 211.087708,371.155426 
	C208.671951,368.477905 210.155243,365.159790 208.921600,362.057861 
z"/>
<path fill="#000000" opacity="1.000000" stroke="none" 
	d="
M138.414520,387.569641 
	C139.367065,388.868622 140.717560,389.564667 140.476303,391.135010 
	C135.185181,391.831787 128.840561,385.430115 129.747757,380.001007 
	C133.496628,381.459106 135.223328,385.125763 138.414520,387.569641 
z"/>
<path fill="#000000" opacity="1.000000" stroke="none" 
	d="
M482.207458,136.680878 
	C481.647461,134.405014 479.472076,132.798843 480.821716,130.449585 
	C485.366089,132.740616 488.407623,138.505585 487.438416,143.219650 
	C484.418427,142.152481 483.759247,139.267349 482.207458,136.680878 
z"/>
<path fill="#000000" opacity="1.000000" stroke="none" 
	d="
M347.156982,436.460541 
	C351.287689,435.260651 354.947296,433.201996 359.179810,434.369415 
	C355.804535,437.318878 351.686920,438.138367 347.525085,438.615906 
	C346.229034,438.764587 345.059631,437.966888 347.156982,436.460541 
z"/>
<path fill="#000000" opacity="1.000000" stroke="none" 
	d="
M195.776215,417.007812 
	C192.707764,415.277802 189.319992,414.591980 186.826797,410.733246 
	C192.371872,410.879730 195.677887,413.359009 198.963226,415.933075 
	C198.065460,417.817535 197.042694,417.319000 195.776215,417.007812 
z"/>
<path fill="#000000" opacity="1.000000" stroke="none" 
	d="
M498.304749,209.226028 
	C497.915619,206.643997 497.100708,204.377258 499.270355,201.749634 
	C501.915649,205.478729 502.053894,208.820816 500.911133,212.425766 
	C498.448975,212.449722 498.824829,210.729889 498.304749,209.226028 
z"/>
<path fill="#000000" opacity="1.000000" stroke="none" 
	d="
M475.561584,135.454666 
	C475.249176,134.214539 474.621338,133.230789 476.231689,132.434891 
	C479.084839,134.634125 480.624725,137.499115 480.743347,141.611252 
	C477.178619,140.836319 476.923462,137.885986 475.561584,135.454666 
z"/>
<path fill="#000000" opacity="1.000000" stroke="none" 
	d="
M503.246033,187.210114 
	C503.183258,189.342560 502.642975,190.954483 500.932800,188.737061 
	C499.619141,187.033783 498.800201,184.774841 500.509613,182.574677 
	C503.040253,183.224213 502.761200,185.264969 503.246033,187.210114 
z"/>
<path fill="#000000" opacity="1.000000" stroke="none" 
	d="
M219.775848,423.253418 
	C218.172562,422.511536 216.457077,422.657928 215.322708,420.125092 
	C218.705414,419.878998 221.272598,420.485504 223.693222,422.408356 
	C222.691483,424.374390 221.332397,423.492706 219.775848,423.253418 
z"/>
<path fill="#000000" opacity="1.000000" stroke="none" 
	d="
M207.850861,425.424286 
	C206.978119,424.774597 206.389496,424.260529 204.903931,422.963104 
	C208.709869,422.290436 210.922409,422.733276 212.592636,425.428192 
	C210.980270,427.472595 209.556824,426.077576 207.850861,425.424286 
z"/>
<path fill="#000000" opacity="1.000000" stroke="none" 
	d="
M402.301025,269.593811 
	C413.081451,266.758148 419.234039,262.797394 415.922089,250.320404 
	C415.428314,248.460144 415.872833,246.724564 417.792908,245.611526 
	C419.680725,244.517197 421.591156,244.130981 423.393829,245.483536 
	C434.045898,253.475906 444.296906,266.350830 440.779083,283.056305 
	C439.890625,287.275482 439.197571,291.542847 438.117249,295.710968 
	C437.704224,297.304535 437.201263,299.757690 434.687683,299.144348 
	C432.687683,298.656342 432.959045,296.513580 432.919342,294.912628 
	C432.747101,287.966156 433.654022,280.924194 430.677979,274.267426 
	C428.113922,268.532196 425.147491,263.100067 420.081726,258.214111 
	C417.982178,263.191742 414.686707,266.700409 417.954407,272.281281 
	C421.892242,279.006744 417.266510,285.377533 415.254272,291.726227 
	C414.836212,293.045166 413.680542,293.140839 412.359863,292.786499 
	C405.453888,290.933533 396.840912,280.977570 396.111023,273.906158 
	C395.583008,268.790222 397.104706,267.644806 402.301025,269.593811 
M416.002563,274.618011 
	C415.383423,273.448822 414.914429,272.163055 414.115204,271.133698 
	C412.208069,268.677277 410.202576,270.532379 408.316620,271.267578 
	C406.667603,271.910461 405.310638,272.924805 406.284821,275.045044 
	C408.118408,279.035614 409.740417,283.169617 413.409424,286.447357 
	C415.435425,282.702271 417.008240,279.313171 416.002563,274.618011 
M401.522980,279.762817 
	C402.838989,281.407288 403.559052,283.737488 406.987457,284.497925 
	C405.210754,280.179230 403.780151,276.701813 402.194550,272.847595 
	C399.144257,275.207275 400.520172,277.177948 401.522980,279.762817 
z"/>
</svg>